# xmcd
#
# Track frame offsets:
#	183
#	12508
#	22610
#	32488
#	42518
#	53865
#	63788
#	74513
#	84438
#	96633
#	104980
#	115625
#	123845
#	132115
#	144690
#	154608
#
# Disc length: 2217 seconds
#
# Revision: 1
# Processed by: cddbd v1.4PL0 Copyright (c) Steve Scherf et al.
# Submitted via: MusicWizard 6.0.2
#
DISCID=d708a710
DTITLE=Johnny Cash - The Best Of
DYEAR=1987
DGENRE=Country
TTITLE0=Next In Line
TTITLE1=There You Go
TTITLE2=Rock Island Line
TTITLE3=Get Rhythm
TTITLE4=Big River
TTITLE5=Born To Loose
TTITLE6=Train Of Love
TTITLE7=Hey Porter
TTITLE8=I Walk The Line
TTITLE9=Country Boy
TTITLE10=I Heard That Lonesome Whistle
TTITLE11=Guess Things Happens That Way
TTITLE12=Wreck Of The Old 97
TTITLE13=Folsom Prison Blues
TTITLE14=Ballad Of A Teenage Queen
TTITLE15=Doin' My Time
EXTD=
EXTT0=
EXTT1=
EXTT2=
EXTT3=
EXTT4=
EXTT5=
EXTT6=
EXTT7=
EXTT8=
EXTT9=
EXTT10=
EXTT11=
EXTT12=
EXTT13=
EXTT14=
EXTT15=
PLAYORDER=
